<svg xmlns="http://www.w3.org/2000/svg" version="1.1" xmlns:xlink="http://www.w3.org/1999/xlink" xmlns:svgjs="http://svgjs.dev/svgjs" width="1500" height="1500" viewBox="0 0 1500 1500"><rect width="1500" height="1500" fill="#000000"></rect><g transform="matrix(0.6666666666666666,0,0,0.6666666666666666,249.39393939393938,438.58569500674764)"><svg viewBox="0 0 396 247" data-background-color="#000000" preserveAspectRatio="xMidYMid meet" height="935" width="1500" xmlns="http://www.w3.org/2000/svg" xmlns:xlink="http://www.w3.org/1999/xlink"><g id="tight-bounds" transform="matrix(1,0,0,1,0.2400000000000091,-0.09999999999999432)"><svg viewBox="0 0 395.52 247.2" height="247.2" width="395.52"><g><svg></svg></g><g><svg viewBox="0 0 395.52 247.2" height="247.2" width="395.52"><g transform="matrix(1,0,0,1,75.54432,100.13851604819277)"><svg viewBox="0 0 244.43135999999998 46.92296790361445" height="46.92296790361445" width="244.43135999999998"><g><svg viewBox="0 0 244.43135999999998 46.92296790361445" height="46.92296790361445" width="244.43135999999998"><g><svg viewBox="0 0 244.43135999999998 46.92296790361445" height="46.92296790361445" width="244.43135999999998"><g id="textblocktransform"><svg viewBox="0 0 244.43135999999998 46.92296790361445" height="46.92296790361445" width="244.43135999999998" id="textblock"><g><svg viewBox="0 0 244.43135999999998 46.92296790361445" height="46.92296790361445" width="244.43135999999998"><g transform="matrix(1,0,0,1,0,0)"><svg width="244.43135999999998" viewBox="3.05 -40.5 248.97 47.8" height="46.92296790361445" data-palette-color="#c4f649"><path d="M7.65 0L3.05 0 3.8-40.5 9.35-40.5 16.5-7.65 23.7-40.5 29.2-40.5 29.95 0 25.4 0 24.95-29.4 18.1 0 14.9 0 8.1-29.4 7.65 0ZM43.65 0.4L43.65 0.4Q40.45 0.4 38.6-0.9 36.75-2.2 35.97-4.6 35.2-7 35.2-10.25L35.2-10.25 35.2-18.65Q35.2-21.9 35.97-24.3 36.75-26.7 38.6-28 40.45-29.3 43.65-29.3L43.65-29.3Q46.85-29.3 48.67-28 50.5-26.7 51.27-24.3 52.05-21.9 52.05-18.65L52.05-18.65 52.05-10.25Q52.05-7 51.27-4.6 50.5-2.2 48.67-0.9 46.85 0.4 43.65 0.4ZM43.65-3.55L43.65-3.55Q45.2-3.55 45.82-4.45 46.45-5.35 46.57-6.83 46.7-8.3 46.7-9.9L46.7-9.9 46.7-18.95Q46.7-20.6 46.57-22.05 46.45-23.5 45.82-24.43 45.2-25.35 43.65-25.35L43.65-25.35Q42.1-25.35 41.45-24.43 40.8-23.5 40.67-22.05 40.55-20.6 40.55-18.95L40.55-18.95 40.55-9.9Q40.55-8.3 40.67-6.83 40.8-5.35 41.45-4.45 42.1-3.55 43.65-3.55ZM56.05 7.3L56.05 7.3Q55.4 7.3 54.62 7.23 53.85 7.15 53.3 6.95L53.3 6.95 53.3 3.1Q53.55 3.15 54 3.2 54.45 3.25 54.7 3.25L54.7 3.25Q55.85 3.25 56.5 2.8 57.15 2.35 57.42 1.55 57.7 0.75 57.7-0.25L57.7-0.25 57.7-28.9 63.05-28.9 63.05 0.3Q63.05 3.7 61.17 5.5 59.3 7.3 56.05 7.3ZM63.1-33.2L57.7-33.2 57.7-38.8 63.1-38.8 63.1-33.2ZM76.14 0.4L76.14 0.4Q73.89 0.4 72.52-0.45 71.14-1.3 70.52-2.85 69.89-4.4 69.89-6.5L69.89-6.5 69.89-25.35 66.84-25.35 66.84-28.9 69.89-28.9 69.89-37.35 75.24-37.35 75.24-28.9 79.89-28.9 79.89-25.35 75.24-25.35 75.24-6.85Q75.24-5.15 75.79-4.42 76.34-3.7 77.89-3.7L77.89-3.7Q78.29-3.7 78.82-3.75 79.34-3.8 79.84-3.85L79.84-3.85 79.84 0.1Q78.84 0.25 77.99 0.33 77.14 0.4 76.14 0.4ZM89.04 0.4L89.04 0.4Q87.34 0.4 86.04-0.58 84.74-1.55 83.99-3.08 83.24-4.6 83.24-6.3L83.24-6.3Q83.24-9 84.14-10.85 85.04-12.7 86.62-13.98 88.19-15.25 90.27-16.2 92.34-17.15 94.64-18.05L94.64-18.05 94.64-20.1Q94.64-21.85 94.44-23 94.24-24.15 93.62-24.73 92.99-25.3 91.74-25.3L91.74-25.3Q90.64-25.3 89.97-24.8 89.29-24.3 88.99-23.38 88.69-22.45 88.69-21.2L88.69-21.2 88.69-19.75 83.39-19.95Q83.49-24.75 85.59-27.03 87.69-29.3 92.09-29.3L92.09-29.3Q96.39-29.3 98.19-26.95 99.99-24.6 99.99-20.15L99.99-20.15 99.99-6.95Q99.99-5.6 100.07-4.35 100.14-3.1 100.27-2.02 100.39-0.95 100.49 0L100.49 0 95.59 0Q95.44-0.8 95.22-2.02 94.99-3.25 94.89-4.25L94.89-4.25Q94.39-2.55 92.97-1.07 91.54 0.4 89.04 0.4ZM91.14-4.2L91.14-4.2Q91.94-4.2 92.64-4.65 93.34-5.1 93.89-5.68 94.44-6.25 94.64-6.6L94.64-6.6 94.64-14.8Q93.39-14.1 92.29-13.4 91.19-12.7 90.37-11.93 89.54-11.15 89.07-10.18 88.59-9.2 88.59-7.95L88.59-7.95Q88.59-6.2 89.24-5.2 89.89-4.2 91.14-4.2ZM115.49 0.4L115.49 0.4Q113.94 0.4 112.71-0.38 111.49-1.15 110.59-2.1L110.59-2.1 110.59 0 105.24 0 105.24-40.5 110.59-40.5 110.59-26.6Q111.54-27.7 112.86-28.5 114.19-29.3 116.04-29.3L116.04-29.3Q118.29-29.3 119.61-28.13 120.94-26.95 121.59-25.18 122.24-23.4 122.44-21.58 122.64-19.75 122.64-18.45L122.64-18.45 122.64-11.45Q122.64-8.4 122.04-5.68 121.44-2.95 119.89-1.28 118.34 0.4 115.49 0.4ZM114.39-3.8L114.39-3.8Q115.79-3.8 116.39-4.83 116.99-5.85 117.14-7.6 117.29-9.35 117.29-11.45L117.29-11.45 117.29-18.45Q117.29-20.25 117.09-21.78 116.89-23.3 116.24-24.2 115.59-25.1 114.19-25.1L114.19-25.1Q113.14-25.1 112.21-24.65 111.29-24.2 110.59-23.65L110.59-23.65 110.59-5.1Q111.29-4.55 112.26-4.17 113.24-3.8 114.39-3.8ZM132.69 0.4L132.69 0.4Q130.99 0.4 129.69-0.58 128.39-1.55 127.64-3.08 126.89-4.6 126.89-6.3L126.89-6.3Q126.89-9 127.79-10.85 128.69-12.7 130.26-13.98 131.84-15.25 133.91-16.2 135.99-17.15 138.29-18.05L138.29-18.05 138.29-20.1Q138.29-21.85 138.09-23 137.89-24.15 137.26-24.73 136.64-25.3 135.39-25.3L135.39-25.3Q134.29-25.3 133.61-24.8 132.94-24.3 132.64-23.38 132.34-22.45 132.34-21.2L132.34-21.2 132.34-19.75 127.04-19.95Q127.14-24.75 129.24-27.03 131.34-29.3 135.74-29.3L135.74-29.3Q140.04-29.3 141.84-26.95 143.64-24.6 143.64-20.15L143.64-20.15 143.64-6.95Q143.64-5.6 143.71-4.35 143.79-3.1 143.91-2.02 144.04-0.95 144.14 0L144.14 0 139.24 0Q139.09-0.8 138.86-2.02 138.64-3.25 138.54-4.25L138.54-4.25Q138.04-2.55 136.61-1.07 135.19 0.4 132.69 0.4ZM134.79-4.2L134.79-4.2Q135.59-4.2 136.29-4.65 136.99-5.1 137.54-5.68 138.09-6.25 138.29-6.6L138.29-6.6 138.29-14.8Q137.04-14.1 135.94-13.4 134.84-12.7 134.01-11.93 133.19-11.15 132.71-10.18 132.24-9.2 132.24-7.95L132.24-7.95Q132.24-6.2 132.89-5.2 133.54-4.2 134.79-4.2ZM163.78 0L158.48 0 167.08-40.5 172.53-40.5 181.18 0 175.83 0 173.98-10.2 165.73-10.2 163.78 0ZM169.83-32.5L166.48-14.25 173.23-14.25 169.83-32.5ZM189.78 0L184.83 0 184.83-28.9 189.78-28.9 189.78-26.15Q191.23-27.8 192.98-28.6 194.73-29.4 196.58-29.4L196.58-29.4Q198.18-29.4 199.45-28.6 200.73-27.8 201.28-25.75L201.28-25.75Q202.83-27.65 204.65-28.53 206.48-29.4 208.48-29.4L208.48-29.4Q209.88-29.4 211.03-28.73 212.18-28.05 212.88-26.58 213.58-25.1 213.58-22.7L213.58-22.7 213.58 0 208.68 0 208.68-22.35Q208.68-24.45 208-25.18 207.33-25.9 206.18-25.9L206.18-25.9Q205.08-25.9 203.88-25.28 202.68-24.65 201.68-23.55L201.68-23.55Q201.68-23.35 201.68-23.15 201.68-22.95 201.68-22.7L201.68-22.7 201.68 0 196.78 0 196.78-22.35Q196.78-24.45 196.1-25.18 195.43-25.9 194.28-25.9L194.28-25.9Q193.18-25.9 192-25.28 190.83-24.65 189.78-23.55L189.78-23.55 189.78 0ZM224.53 0L219.18 0 219.18-28.9 224.53-28.9 224.53 0ZM224.53-33.2L219.18-33.2 219.18-38.8 224.53-38.8 224.53-33.2ZM235.77 0L230.42 0 230.42-28.9 235.77-28.9 235.77-24.8Q237.37-27.45 238.97-28.35 240.57-29.25 242.17-29.25L242.17-29.25Q242.37-29.25 242.55-29.25 242.72-29.25 243.02-29.2L243.02-29.2 243.02-23.3Q242.42-23.55 241.65-23.73 240.87-23.9 240.07-23.9L240.07-23.9Q238.82-23.9 237.8-23.33 236.77-22.75 235.77-21.1L235.77-21.1 235.77 0ZM252.02 0L246.67 0 246.67-28.9 252.02-28.9 252.02 0ZM252.02-33.2L246.67-33.2 246.67-38.8 252.02-38.8 252.02-33.2Z" opacity="1" transform="matrix(1,0,0,1,0,0)" fill="#c4f649" class="wordmark-text-0" data-fill-palette-color="primary" id="text-0"></path></svg></g></svg></g></svg></g></svg></g><g></g></svg></g></svg></g><g><path d="M80.526 89.061A122.216 122.216 0 0 1 314.994 89.061L310.762 89.061A117.984 117.984 0 0 0 84.758 89.061L80.526 89.061M80.526 158.139A122.216 122.216 0 0 0 314.994 158.139L310.762 158.139A117.984 117.984 0 0 1 84.758 158.139L80.526 158.139" fill="#c4f649" stroke="transparent" data-fill-palette-color="tertiary"></path></g></svg></g><defs></defs></svg><rect width="395.52" height="247.2" fill="none" stroke="none" visibility="hidden"></rect></g></svg></g></svg>